<svg width="31" height="20" viewBox="0 0 31 20" fill="none" xmlns="http://www.w3.org/2000/svg">
<path d="M30.267 11.2638C30.0419 8.73813 29.6713 8.24625 29.5312 8.06125C29.2093 7.63375 28.6942 7.35437 28.1492 7.06125C28.1183 7.04495 28.0917 7.02172 28.0714 6.99338C28.0511 6.96503 28.0377 6.93236 28.0322 6.89794C28.0266 6.86351 28.0292 6.82828 28.0396 6.79501C28.0501 6.76175 28.0681 6.73136 28.0923 6.70625C28.1932 6.60389 28.2708 6.48089 28.3197 6.34571C28.3686 6.21053 28.3876 6.06636 28.3755 5.92313C28.3519 5.66913 28.2338 5.43325 28.0445 5.26226C27.8552 5.09127 27.6085 4.99766 27.3534 5H26.3783C26.3365 5.00025 26.2947 5.00296 26.2533 5.00813C26.2248 4.99578 26.1953 4.98595 26.1651 4.97875C25.5875 3.75813 24.7968 2.08687 23.1578 1.27125C20.7268 0.0624998 16.2487 0 15.3735 0C14.4984 0 10.0203 0.0624999 7.59239 1.26937C5.9534 2.085 5.16266 3.75625 4.58508 4.97688L4.58008 4.98687C4.55127 4.99093 4.52298 4.99805 4.49569 5.00813C4.45421 5.00296 4.41247 5.00025 4.37067 5H3.39365C3.13855 4.99766 2.89188 5.09127 2.70257 5.26226C2.51326 5.43325 2.39514 5.66913 2.37163 5.92313C2.36052 6.06603 2.38041 6.20964 2.42993 6.34415C2.47945 6.47866 2.55743 6.6009 2.65854 6.7025C2.68273 6.72761 2.70076 6.758 2.71119 6.79126C2.72163 6.82453 2.72419 6.85976 2.71867 6.89419C2.71315 6.92861 2.69971 6.96128 2.67941 6.98963C2.6591 7.01797 2.63248 7.0412 2.60166 7.0575C2.05658 7.3525 1.539 7.63187 1.21958 8.0575C1.07956 8.245 0.709506 8.73438 0.483848 11.26C0.35883 12.6813 0.340077 14.1525 0.438216 15.1C0.643871 17.0688 1.02955 18.2587 1.04581 18.3081C1.10499 18.4878 1.21393 18.647 1.35998 18.7673C1.50603 18.8875 1.68321 18.9639 1.87093 18.9875V19C1.87093 19.2652 1.9763 19.5196 2.16386 19.7071C2.35143 19.8946 2.60582 20 2.87107 20H6.37159C6.63684 20 6.89124 19.8946 7.0788 19.7071C7.26636 19.5196 7.37174 19.2652 7.37174 19C7.90994 19 8.28437 18.9038 8.6813 18.8013C9.25438 18.6469 9.84014 18.5442 10.4316 18.4944C12.3387 18.3125 14.2352 18.25 15.3735 18.25C16.4887 18.25 18.469 18.3125 20.3793 18.4944C20.973 18.5443 21.5611 18.6474 22.1364 18.8025C22.5165 18.9 22.8771 18.99 23.3766 18.9994C23.3766 19.2646 23.482 19.5189 23.6695 19.7065C23.8571 19.894 24.1115 19.9994 24.3767 19.9994H27.8773C28.1425 19.9994 28.3969 19.894 28.5845 19.7065C28.772 19.5189 28.8774 19.2646 28.8774 18.9994V18.9919C29.0656 18.9687 29.2433 18.8925 29.3898 18.7723C29.5363 18.652 29.6457 18.4925 29.705 18.3125C29.7213 18.2631 30.107 17.0731 30.3126 15.1044C30.4107 14.1563 30.3932 12.6875 30.267 11.2638ZM6.39284 5.83187C6.89292 4.76937 7.46488 3.56688 8.48315 3.06C9.95462 2.3275 13.0044 1.9975 15.3735 1.9975C17.7426 1.9975 20.7925 2.325 22.2639 3.06C23.2822 3.56688 23.8517 4.77 24.3542 5.83187L24.4167 5.9675C24.4533 6.04471 24.4695 6.13 24.4637 6.21522C24.4579 6.30045 24.4304 6.38278 24.3837 6.45435C24.3371 6.52593 24.2729 6.58436 24.1973 6.62408C24.1216 6.6638 24.0371 6.68348 23.9517 6.68125C21.8745 6.625 17.4989 6.445 15.3735 6.445C13.2482 6.445 8.87258 6.62938 6.79228 6.68563C6.70687 6.68786 6.62231 6.66818 6.54668 6.62846C6.47104 6.58874 6.40684 6.5303 6.3602 6.45873C6.31357 6.38715 6.28605 6.30483 6.28027 6.2196C6.2745 6.13437 6.29065 6.04909 6.32721 5.97188C6.34909 5.92563 6.37221 5.87875 6.39284 5.83187ZM7.13858 10.8088C6.0633 10.9381 4.98114 11.002 3.8981 11C3.2355 11 2.55228 10.8125 2.42538 10.2225C2.3385 9.82562 2.34787 9.6025 2.39475 9.37813C2.43413 9.1875 2.49664 9.04875 2.80919 9C3.62181 8.875 4.07625 9.03187 5.40645 9.42375C6.28845 9.68312 6.9248 10.0287 7.28735 10.3025C7.46925 10.4375 7.37236 10.79 7.13858 10.8088ZM20.9769 15.9338C20.1542 16.0275 18.509 15.9931 15.3923 15.9931C12.2756 15.9931 10.631 16.0275 9.80834 15.9338C8.95947 15.8394 7.87744 15.0369 8.61629 14.3219C9.10824 13.8506 10.2559 13.4981 11.7843 13.3C13.3126 13.1019 13.9596 13 15.386 13C16.8125 13 17.3938 13.0625 18.9878 13.3006C20.5818 13.5387 21.7864 13.8956 22.1558 14.3225C22.8296 15.0875 21.8251 15.8344 20.9769 15.9375V15.9338ZM28.3217 10.2219C28.1967 10.8144 27.5091 10.9994 26.849 10.9994C25.7452 10.9996 24.6424 10.9358 23.546 10.8081C23.3547 10.79 23.2659 10.4544 23.4597 10.3019C23.8167 10.0212 24.4599 9.6825 25.3406 9.42313C26.6708 9.03125 27.4378 8.87438 28.0967 9.005C28.2573 9.03688 28.3423 9.20938 28.3523 9.3175C28.3964 9.61857 28.386 9.9251 28.3217 10.2225V10.2219Z" fill="#BE8DFD"/>
</svg>
