<svg width="22" height="20" viewBox="0 0 22 20" fill="none" xmlns="http://www.w3.org/2000/svg">
<path d="M15.8902 14.7368C15.6111 14.7368 15.3433 14.6259 15.1459 14.4285C14.9485 14.2311 14.8376 13.9634 14.8376 13.6842C14.8376 13.405 14.9485 13.1373 15.1459 12.9399C15.3433 12.7425 15.6111 12.6316 15.8902 12.6316C17.6313 12.6316 19.0481 11.2147 19.0481 9.47369C19.0481 7.73264 17.6313 6.3158 15.8902 6.3158C15.6397 6.3158 15.3681 6.36001 15.0344 6.45369L13.9071 6.77053L13.7113 5.61474C13.55 4.63418 13.0454 3.74288 12.2876 3.10001C11.5298 2.45715 10.5682 2.10458 9.57444 2.10527C8.94984 2.10622 8.33325 2.24595 7.76925 2.51435C7.20526 2.78275 6.70795 3.17312 6.31328 3.65724C5.91862 4.14135 5.63645 4.70712 5.4872 5.31363C5.33794 5.92014 5.32531 6.55223 5.45023 7.16422L5.72392 8.46948L4.21234 8.41474C3.14918 8.42106 2.20602 9.36527 2.20602 10.5263C2.20602 11.6874 3.14918 12.6316 4.31129 12.6316C4.59046 12.6316 4.8582 12.7425 5.05561 12.9399C5.25302 13.1373 5.36392 13.405 5.36392 13.6842C5.36392 13.9634 5.25302 14.2311 5.05561 14.4285C4.8582 14.6259 4.59046 14.7368 4.31129 14.7368C1.99023 14.7368 0.100761 12.8484 0.100761 10.5263C0.101908 9.59272 0.412766 8.68589 0.984619 7.94793C1.55647 7.20997 2.357 6.68258 3.26076 6.44843L3.25865 6.3158C3.25865 2.83264 6.09129 9.38185e-06 9.57444 9.38185e-06C10.8822 -0.00225036 12.1581 0.403757 13.2241 1.16139C14.29 1.91902 15.0929 2.99049 15.5208 4.22632C18.5997 3.97264 21.1534 6.44948 21.1534 9.47369C21.1534 12.3758 18.7923 14.7368 15.8902 14.7368ZM11.2997 10.5263L6.56286 14.7905L9.72076 16.3158L8.14181 20L12.8787 15.7368L9.72076 14.2105L11.2997 10.5263Z" fill="#D1D1D1"/>
</svg>
