<svg width="31" height="20" viewBox="0 0 31 20" fill="none" xmlns="http://www.w3.org/2000/svg">
<path d="M30.2293 17.6391L22.9486 0.972396C22.6897 0.379687 22.1257 0 21.5049 0H16.4221L16.5497 1.20625C16.5757 1.45208 16.3825 1.66667 16.1351 1.66667H14.6164C14.369 1.66667 14.1757 1.45208 14.2018 1.20625L14.3294 0H9.24662C8.62527 0 8.06121 0.379687 7.80236 0.972396L0.52168 17.6391C0.0399125 18.7427 0.808657 20 1.96646 20H12.2185L12.7554 14.9125C12.8002 14.4885 13.1575 14.1667 13.5841 14.1667H17.1674C17.594 14.1667 17.9512 14.4885 17.996 14.9125L18.533 20H28.785C29.9428 20 30.7116 18.7427 30.2293 17.6391ZM13.9382 3.70625C13.9491 3.60385 13.9974 3.50908 14.074 3.44022C14.1505 3.37135 14.2499 3.33328 14.3528 3.33333H16.3992C16.6122 3.33333 16.7914 3.49427 16.8137 3.70625L17.0533 5.97604C17.0924 6.34531 16.8028 6.66667 16.432 6.66667H14.3205C13.9492 6.66667 13.6601 6.34531 13.6992 5.97604L13.9382 3.70625ZM16.8153 12.5H13.9356C13.4409 12.5 13.0549 12.0714 13.107 11.5792L13.3711 9.07917C13.4159 8.65521 13.7731 8.33333 14.1997 8.33333H16.5513C16.9778 8.33333 17.3351 8.65521 17.3799 9.07917L17.644 11.5792C17.696 12.0714 17.3101 12.5 16.8153 12.5Z" fill="#BE8DFD"/>
</svg>
