<svg width="24" height="21" viewBox="0 0 24 21" fill="none" xmlns="http://www.w3.org/2000/svg">
<path d="M7 17.6438V19.6438" stroke="#D1D1D1" stroke-width="0.75" stroke-linecap="round"/>
<path d="M11 17.6438V19.6438" stroke="#D1D1D1" stroke-width="0.75" stroke-linecap="round"/>
<path d="M15 17.6438V19.6438" stroke="#D1D1D1" stroke-width="0.75" stroke-linecap="round"/>
<path d="M17.2584 16.6977C16.9532 16.6977 16.6606 16.5765 16.4448 16.3607C16.229 16.1449 16.1078 15.8523 16.1078 15.5471C16.1078 15.242 16.229 14.9493 16.4448 14.7335C16.6606 14.5178 16.9532 14.3966 17.2584 14.3966C19.1614 14.3966 20.71 12.8479 20.71 10.9449C20.71 9.04186 19.1614 7.49321 17.2584 7.49321C16.9788 7.49321 16.6831 7.54038 16.3264 7.64278L15.0896 7.996L14.8767 6.72694C14.7004 5.65515 14.1489 4.68093 13.3206 3.97826C12.4923 3.27559 11.4412 2.89022 10.355 2.89098C9.67165 2.89163 8.99698 3.04431 8.37991 3.33795C7.76284 3.63159 7.21883 4.05884 6.7873 4.58872C6.35577 5.11861 6.04753 5.73786 5.88492 6.40161C5.72231 7.06535 5.7094 7.75696 5.84714 8.42631L6.12787 9.80583L4.49408 9.78742C3.33317 9.79433 2.30112 10.8264 2.30112 12.0954C2.30112 13.3645 3.33317 14.3966 4.60223 14.3966C4.90738 14.3966 5.20003 14.5178 5.4158 14.7335C5.63157 14.9493 5.75279 15.242 5.75279 15.5471C5.75279 15.8523 5.63157 16.1449 5.4158 16.3607C5.20003 16.5765 4.90738 16.6977 4.60223 16.6977C2.0641 16.6977 0 14.6336 0 12.0954C0.00118706 11.0751 0.340799 10.0841 0.965629 9.27747C1.59046 8.47087 2.46521 7.89434 3.45282 7.63818L3.45167 7.49321C3.45167 3.68601 6.54783 0.589861 10.355 0.589861C11.7846 0.587493 13.1793 1.03129 14.3446 1.85938C15.5099 2.68747 16.3877 3.85856 16.8557 5.20935C20.2372 4.92862 23.0112 7.64048 23.0112 10.9449C23.0112 14.117 20.4305 16.6977 17.2584 16.6977Z" fill="#D1D1D1"/>
</svg>
