<svg width="25" height="21" viewBox="0 0 25 21" fill="none" xmlns="http://www.w3.org/2000/svg">
<path d="M12.2645 12C13.3361 12 14.3638 11.5786 15.1215 10.8284C15.8792 10.0783 16.3049 9.06087 16.3049 8C16.3049 6.93913 15.8792 5.92172 15.1215 5.17157C14.3638 4.42143 13.3361 4 12.2645 4C11.1929 4 10.1652 4.42143 9.40749 5.17157C8.64977 5.92172 8.22409 6.93913 8.22409 8C8.22409 9.06087 8.64977 10.0783 9.40749 10.8284C10.1652 11.5786 11.1929 12 12.2645 12ZM12.2645 12C10.6571 12 9.11558 12.6321 7.979 13.7574C6.84241 14.8826 6.20389 16.4087 6.20389 18V21M12.2645 12C13.8719 12 15.4134 12.6321 16.55 13.7574C17.6866 14.8826 18.3251 16.4087 18.3251 18V21M13.2746 4C13.6827 2.336 15.3099 1 17.315 1C19.5089 1 21.3352 2.79 21.3554 5C21.3352 7.21 19.5089 9 17.315 9M17.315 9H16.3049M17.315 9C20.6362 9 23.3756 11.686 23.3756 15V17M11.2544 4C10.8463 2.336 9.21904 1 7.21399 1C5.02005 1 3.19379 2.79 3.17358 5C3.19379 7.21 5.02005 9 7.21399 9M7.21399 9H8.22409M7.21399 9C3.89278 9 1.15338 11.686 1.15338 15V17" stroke="#F0F0F0" stroke-width="1.5"/>
</svg>
