<svg width="25" height="21" viewBox="0 0 25 21" fill="none" xmlns="http://www.w3.org/2000/svg">
<path d="M8 15.1587L9.3291 20.119" stroke="#D1D1D1" stroke-width="1.5" stroke-linecap="round"/>
<path d="M12.4584 15.0419L13.8306 20.1629" stroke="#D1D1D1" stroke-width="1.5" stroke-linecap="round"/>
<path d="M16.5977 15L18 20.2336" stroke="#D1D1D1" stroke-width="1.5" stroke-linecap="round"/>
<path d="M10 14.12L11.3592 19.1924" stroke="#D1D1D1" stroke-width="0.75" stroke-linecap="round"/>
<path d="M14.1629 14L15.5661 19.2368" stroke="#D1D1D1" stroke-width="0.75" stroke-linecap="round"/>
<path d="M4.05607 8.34663L4.81116 8.15078L4.80497 7.37072L4.8038 7.22306C4.80588 3.79147 7.59862 1.00001 11.0307 1.00001L11.0322 1.00001C12.3206 0.998027 13.5775 1.39808 14.6278 2.14439C15.678 2.89071 16.4692 3.9461 16.8911 5.16347L17.1453 5.89684L17.9188 5.83256C20.8457 5.58932 23.2797 7.93894 23.28 10.8398C23.2779 11.938 22.917 13.0054 22.2521 13.8794C21.587 14.7537 20.6542 15.3866 19.5959 15.6814L19.5825 15.6851L19.5692 15.6893C19.5431 15.6973 19.5156 15.7001 19.4883 15.6973C19.4611 15.6946 19.4347 15.6864 19.4107 15.6732C19.3867 15.6601 19.3656 15.6423 19.3486 15.6208L18.5645 16.2415L19.3486 15.6208C19.3316 15.5993 19.3191 15.5747 19.3118 15.5483C19.3045 15.5219 19.3026 15.4943 19.3062 15.4672C19.3097 15.44 19.3187 15.4139 19.3326 15.3903L18.4703 14.8838L19.3326 15.3903C19.3464 15.3667 19.3649 15.3461 19.3869 15.3298L18.7901 14.5274L19.3869 15.3298C19.4088 15.3135 19.4339 15.3017 19.4605 15.2952L19.4767 15.2913L19.4928 15.2867C20.4634 15.0154 21.3188 14.4342 21.9286 13.6318C22.5384 12.8295 22.8694 11.8498 22.871 10.842V10.8403C22.871 8.29583 20.8021 6.22689 18.2576 6.22689C17.8486 6.22689 17.4441 6.29699 17.0067 6.42175C17.0066 6.42177 17.0065 6.4218 17.0064 6.42183L16.7882 6.48399L16.751 6.26239C16.7509 6.26183 16.7508 6.26127 16.7508 6.26071C16.5274 4.9053 15.8297 3.67333 14.7821 2.78465C13.7342 1.89559 12.4043 1.40801 11.03 1.40897L11.0296 1.40897C10.1663 1.40993 9.31401 1.60283 8.53445 1.97372C7.7549 2.34461 7.06757 2.8842 6.52222 3.55343C5.97687 4.22265 5.58716 5.00477 5.38129 5.84315C5.17542 6.68153 5.15855 7.5552 5.33189 8.40091L5.33216 8.40217L5.37998 8.63399L4.90872 8.62869L4.90013 8.62859L4.89153 8.62864C3.09734 8.63929 1.59932 10.1932 1.59932 12.0448C1.59932 13.9256 3.12745 15.4538 5.00828 15.4538C5.06252 15.4538 5.11452 15.4753 5.15287 15.5137C5.19122 15.552 5.21276 15.604 5.21276 15.6582C5.21276 15.7125 5.19122 15.7645 5.15287 15.8028L5.73141 16.3814L5.15287 15.8028C5.11452 15.8412 5.06252 15.8627 5.00828 15.8627C2.90368 15.8627 1.19068 14.1499 1.19036 12.0454C1.19147 11.1988 1.47333 10.3765 1.99179 9.70717C2.51038 9.03773 3.23638 8.55922 4.05607 8.34663Z" stroke="#D1D1D1" stroke-width="2"/>
</svg>
