<svg width="21" height="20" viewBox="0 0 21 20" fill="none" xmlns="http://www.w3.org/2000/svg">
<path d="M10.1008 6V8L10.1008 10M12.1008 8L8.10076 8" stroke="#D1D1D1" stroke-linecap="round"/>
<path d="M13.1008 18C12.8355 18 12.5812 17.8947 12.3937 17.7071C12.2061 17.5196 12.1008 17.2652 12.1008 17V11C12.1008 10.7348 12.2061 10.4804 12.3937 10.2929C12.5812 10.1054 12.8355 10 13.1008 10C13.366 10 13.6203 10.1054 13.8079 10.2929C13.9954 10.4804 14.1008 10.7348 14.1008 11V17C14.1008 17.2652 13.9954 17.5196 13.8079 17.7071C13.6203 17.8947 13.366 18 13.1008 18ZM7.10076 18C6.83555 18 6.58119 17.8947 6.39365 17.7071C6.20612 17.5196 6.10076 17.2652 6.10076 17V11C6.10076 10.7348 6.20612 10.4804 6.39365 10.2929C6.58119 10.1054 6.83555 10 7.10076 10C7.36598 10 7.62033 10.1054 7.80787 10.2929C7.9954 10.4804 8.10076 10.7348 8.10076 11V17C8.10076 17.2652 7.9954 17.5196 7.80787 17.7071C7.62033 17.8947 7.36598 18 7.10076 18ZM10.1008 20C9.83554 20 9.58119 19.8947 9.39365 19.7071C9.20612 19.5196 9.10076 19.2652 9.10076 19V13C9.10076 12.7348 9.20612 12.4804 9.39365 12.2929C9.58119 12.1054 9.83554 12 10.1008 12C10.366 12 10.6203 12.1054 10.8079 12.2929C10.9954 12.4804 11.1008 12.7348 11.1008 13V19C11.1008 19.2652 10.9954 19.5196 10.8079 19.7071C10.6203 19.8947 10.366 20 10.1008 20ZM4.10076 14C1.89476 14 0.100761 12.206 0.100761 10C0.101793 9.11322 0.396964 8.25183 0.940031 7.55078C1.4831 6.84974 2.24338 6.34864 3.10176 6.12601L3.10076 6.00001C3.10076 2.69101 5.79176 7.0548e-06 9.10076 7.0548e-06C10.3432 -0.0019025 11.5553 0.383882 12.5681 1.10359C13.5809 1.82329 14.3439 2.84105 14.7508 4.01501C17.6868 3.77101 20.1008 6.12801 20.1008 9.00001C20.099 10.0932 19.7398 11.1558 19.0779 12.0258C18.416 12.8959 17.4878 13.5256 16.4348 13.819C16.3069 13.8585 16.1723 13.8719 16.0391 13.8585C15.906 13.845 15.7768 13.805 15.6594 13.7407C15.542 13.6764 15.4387 13.5892 15.3556 13.4842C15.2725 13.3793 15.2113 13.2587 15.1757 13.1297C15.1401 13.0006 15.1307 12.8658 15.1482 12.733C15.1657 12.6003 15.2096 12.4725 15.2774 12.357C15.3452 12.2416 15.4355 12.141 15.5429 12.0611C15.6503 11.9812 15.7727 11.9237 15.9028 11.892C16.5343 11.7154 17.0908 11.3373 17.4876 10.8152C17.8844 10.2932 18.0997 9.65575 18.1008 9.00001C18.1008 7.34601 16.7548 6.00001 15.1008 6.00001C14.8588 6.00001 14.6018 6.04101 14.2898 6.13001L13.2158 6.43601L13.0308 5.33401C12.8775 4.40247 12.3982 3.55574 11.6783 2.94501C10.9584 2.33429 10.0448 1.99935 9.10076 2.00001C8.50712 2.00067 7.92106 2.13332 7.385 2.38836C6.84894 2.6434 6.37629 3.01445 6.00129 3.47464C5.62628 3.93483 5.35829 4.47266 5.21673 5.04917C5.07516 5.62568 5.06356 6.22646 5.18276 6.80801L5.43076 8.01001L4.00876 7.99401C2.99776 8.00001 2.10076 8.89701 2.10076 10C2.10076 11.103 2.99776 12 4.10076 12C4.36598 12 4.62033 12.1054 4.80787 12.2929C4.9954 12.4804 5.10076 12.7348 5.10076 13C5.10076 13.2652 4.9954 13.5196 4.80787 13.7071C4.62033 13.8947 4.36598 14 4.10076 14Z" fill="#D1D1D1"/>
</svg>
