<svg width="24" height="20" viewBox="0 0 24 20" fill="none" xmlns="http://www.w3.org/2000/svg">
<path d="M17.2584 16.1078C16.9532 16.1078 16.6606 15.9866 16.4448 15.7708C16.229 15.5551 16.1078 15.2624 16.1078 14.9573C16.1078 14.6521 16.229 14.3595 16.4448 14.1437C16.6606 13.9279 16.9532 13.8067 17.2584 13.8067C19.1614 13.8067 20.71 12.2581 20.71 10.355C20.71 8.45201 19.1614 6.90336 17.2584 6.90336C16.9788 6.90336 16.6831 6.95053 16.3264 7.05293L15.0896 7.40615L14.8767 6.13709C14.7004 5.0653 14.1489 4.09108 13.3206 3.38841C12.4923 2.68574 11.4412 2.30037 10.355 2.30113C9.67165 2.30178 8.99698 2.45446 8.37991 2.7481C7.76284 3.04174 7.21883 3.46898 6.7873 3.99887C6.35577 4.52876 6.04753 5.14801 5.88492 5.81176C5.72231 6.4755 5.7094 7.16711 5.84714 7.83646L6.12787 9.21598L4.49408 9.19757C3.33317 9.20447 2.30112 10.2365 2.30112 11.5056C2.30112 12.7747 3.33317 13.8067 4.60223 13.8067C4.90738 13.8067 5.20003 13.9279 5.4158 14.1437C5.63157 14.3595 5.75279 14.6521 5.75279 14.9573C5.75279 15.2624 5.63157 15.5551 5.4158 15.7708C5.20003 15.9866 4.90738 16.1078 4.60223 16.1078C2.0641 16.1078 0 14.0437 0 11.5056C0.00118706 10.4853 0.340799 9.49421 0.965629 8.68762C1.59046 7.88102 2.46521 7.30448 3.45282 7.04833L3.45167 6.90336C3.45167 3.09616 6.54783 9.42606e-06 10.355 9.42606e-06C11.7846 -0.00235844 13.1793 0.441443 14.3446 1.26953C15.5099 2.09761 16.3877 3.2687 16.8557 4.6195C20.2372 4.33876 23.0112 7.05063 23.0112 10.355C23.0112 13.5271 20.4305 16.1078 17.2584 16.1078ZM9.77974 16.1078L10.9303 12.6561L12.0809 16.1078C12.1409 16.2898 12.1569 16.4835 12.1276 16.6729C12.0982 16.8623 12.0243 17.042 11.912 17.1973C11.7997 17.3526 11.6522 17.479 11.4815 17.5662C11.3109 17.6534 11.122 17.6989 10.9303 17.6989C10.7387 17.6989 10.5497 17.6534 10.3791 17.5662C10.2084 17.479 10.0609 17.3526 9.94856 17.1973C9.83626 17.042 9.7624 16.8623 9.73305 16.6729C9.7037 16.4835 9.71971 16.2898 9.77974 16.1078ZM13.2314 18.4089L14.382 14.9573L15.5325 18.4089C15.5926 18.5909 15.6086 18.7846 15.5792 18.974C15.5499 19.1634 15.476 19.3431 15.3637 19.4984C15.2514 19.6537 15.1039 19.7801 14.9332 19.8673C14.7625 19.9545 14.5736 20 14.382 20C14.1903 20 14.0014 19.9545 13.8307 19.8673C13.6601 19.7801 13.5125 19.6537 13.4002 19.4984C13.2879 19.3431 13.2141 19.1634 13.1847 18.974C13.1554 18.7846 13.1714 18.5909 13.2314 18.4089ZM6.32807 18.4089L7.47863 14.9573L8.62918 18.4089C8.68922 18.5909 8.70522 18.7846 8.67588 18.974C8.64653 19.1634 8.57267 19.3431 8.46037 19.4984C8.34807 19.6537 8.20052 19.7801 8.02986 19.8673C7.85919 19.9545 7.67028 20 7.47863 20C7.28698 20 7.09806 19.9545 6.9274 19.8673C6.75673 19.7801 6.60919 19.6537 6.49689 19.4984C6.38458 19.3431 6.31072 19.1634 6.28138 18.974C6.25203 18.7846 6.26803 18.5909 6.32807 18.4089Z" fill="#D1D1D1"/>
</svg>
