<svg width="25" height="21" viewBox="0 0 25 21" fill="none" xmlns="http://www.w3.org/2000/svg">
<path d="M7 16.1168V18.1168" stroke="#D1D1D1" stroke-width="0.75" stroke-linecap="round"/>
<path d="M11 16.1168V18.1168" stroke="#D1D1D1" stroke-width="0.75" stroke-linecap="round"/>
<path d="M15 16.1168V18.1168" stroke="#D1D1D1" stroke-width="0.75" stroke-linecap="round"/>
<path d="M9 17.8325V19.8325" stroke="#D1D1D1" stroke-width="0.75" stroke-linecap="round"/>
<path d="M13 17.8325V19.8325" stroke="#D1D1D1" stroke-width="0.75" stroke-linecap="round"/>
<path d="M17 17.8325V19.8325" stroke="#D1D1D1" stroke-width="0.75" stroke-linecap="round"/>
<path d="M3.87687 8.74775L4.63197 8.5519L4.62577 7.77184L4.6246 7.62419C4.62668 4.1926 7.41942 1.40113 10.8515 1.40113L10.853 1.40113C12.1414 1.39915 13.3983 1.7992 14.4486 2.54552C15.4988 3.29183 16.29 4.34723 16.7119 5.56459L16.9661 6.29797L17.7396 6.23368C20.6665 5.99044 23.1005 8.34006 23.1008 11.2409C23.0987 12.3391 22.7378 13.4065 22.0729 14.2805C21.4078 15.1548 20.475 15.7877 19.4167 16.0825L19.4033 16.0863L19.39 16.0904C19.3639 16.0985 19.3364 16.1012 19.3091 16.0984C19.2819 16.0957 19.2555 16.0875 19.2315 16.0744C19.2075 16.0612 19.1864 16.0434 19.1694 16.0219L18.3853 16.6426L19.1694 16.0219C19.1524 16.0005 19.1399 15.9758 19.1326 15.9494C19.1253 15.923 19.1234 15.8955 19.127 15.8683C19.1305 15.8412 19.1395 15.815 19.1534 15.7914L18.2911 15.2849L19.1534 15.7914C19.1672 15.7678 19.1857 15.7473 19.2077 15.7309L18.6109 14.9285L19.2077 15.7309C19.2296 15.7146 19.2547 15.7028 19.2813 15.6963L19.2975 15.6924L19.3136 15.6879C20.2842 15.4165 21.1396 14.8354 21.7494 14.033C22.3592 13.2306 22.6902 12.2509 22.6918 11.2431V11.2415C22.6918 8.69696 20.6229 6.62801 18.0784 6.62801C17.6694 6.62801 17.2649 6.69811 16.8275 6.82287C16.8274 6.8229 16.8273 6.82293 16.8272 6.82295L16.609 6.88512L16.5718 6.66352C16.5717 6.66296 16.5716 6.66239 16.5716 6.66183C16.3482 5.30643 15.6505 4.07445 14.6029 3.18577C13.555 2.29672 12.2251 1.80913 10.8508 1.81009L10.8504 1.81009C9.98708 1.81105 9.13481 2.00396 8.35525 2.37485C7.5757 2.74574 6.88837 3.28533 6.34302 3.95455C5.79767 4.62378 5.40796 5.40589 5.20209 6.24428C4.99622 7.08266 4.97935 7.95633 5.1527 8.80203L5.15296 8.8033L5.20079 9.03511L4.72952 9.02981L4.72093 9.02971L4.71234 9.02976C2.91814 9.04041 1.42012 10.5943 1.42012 12.4459C1.42012 14.3268 2.94826 15.8549 4.82908 15.8549C4.88332 15.8549 4.93533 15.8764 4.97367 15.9148C5.01202 15.9531 5.03356 16.0051 5.03356 16.0594C5.03356 16.1136 5.01202 16.1656 4.97367 16.204L5.55221 16.7825L4.97367 16.204C4.93533 16.2423 4.88332 16.2639 4.82908 16.2639C2.72448 16.2639 1.01149 14.5511 1.01116 12.4465C1.01227 11.5999 1.29413 10.7776 1.81259 10.1083C2.33118 9.43885 3.05718 8.96035 3.87687 8.74775Z" stroke="#D1D1D1" stroke-width="2"/>
</svg>
