<svg width="25" height="21" viewBox="0 0 25 21" fill="none" xmlns="http://www.w3.org/2000/svg">
<path d="M8.44252 12.7731V18.7955" stroke="#D1D1D1" stroke-linecap="round"/>
<path d="M12.056 12.7731L12.056 20" stroke="#D1D1D1" stroke-linecap="round"/>
<path d="M15.6694 12.7731V18.7955" stroke="#D1D1D1" stroke-linecap="round"/>
<path d="M3.87687 8.34663L4.63197 8.15078L4.62577 7.37072L4.6246 7.22306C4.62668 3.79147 7.41942 1.00001 10.8515 1.00001L10.853 1.00001C12.1414 0.998027 13.3983 1.39808 14.4486 2.14439C15.4988 2.89071 16.29 3.9461 16.7119 5.16347L16.9661 5.89684L17.7396 5.83256C20.6661 5.58935 23.0999 7.93841 23.1008 10.8388C23.099 11.9373 22.738 13.0051 22.0729 13.8794C21.4078 14.7537 20.475 15.3866 19.4167 15.6814L19.4033 15.6851L19.39 15.6893C19.3639 15.6973 19.3364 15.7001 19.3091 15.6973C19.2819 15.6946 19.2555 15.6864 19.2315 15.6732C19.2075 15.6601 19.1864 15.6423 19.1694 15.6208C19.1524 15.5993 19.1399 15.5747 19.1326 15.5483C19.1253 15.5219 19.1234 15.4943 19.127 15.4672C19.1305 15.4401 19.1395 15.4139 19.1534 15.3903C19.1672 15.3667 19.1857 15.3461 19.2077 15.3298C19.2296 15.3135 19.2547 15.3017 19.2812 15.2952L19.2975 15.2913L19.3136 15.2867C20.2842 15.0154 21.1396 14.4342 21.7494 13.6318C22.3592 12.8295 22.6902 11.8498 22.6918 10.842V10.8403C22.6918 8.29583 20.6229 6.22689 18.0784 6.22689C17.6694 6.22689 17.2649 6.29699 16.8275 6.42174C16.8274 6.42177 16.8273 6.4218 16.8272 6.42183L16.609 6.48399L16.5718 6.26239C16.5717 6.26182 16.5716 6.26126 16.5715 6.26069C16.3482 4.90529 15.6505 3.67333 14.6029 2.78465C13.555 1.89559 12.2251 1.40801 10.8508 1.40897L10.8504 1.40897C9.98708 1.40993 9.13481 1.60283 8.35525 1.97372C7.5757 2.34461 6.88837 2.8842 6.34302 3.55343C5.79767 4.22265 5.40796 5.00477 5.20209 5.84315C4.99622 6.68153 4.97935 7.5552 5.1527 8.40091L5.15296 8.40217L5.20079 8.63399L4.72952 8.62869L4.72093 8.62859L4.71234 8.62864C2.91814 8.63929 1.42012 10.1932 1.42012 12.0448C1.42012 13.9256 2.94826 15.4538 4.82908 15.4538C4.88332 15.4538 4.93532 15.4753 4.97367 15.5137C5.01202 15.552 5.03356 15.604 5.03356 15.6582C5.03356 15.7125 5.01202 15.7645 4.97367 15.8028C4.93532 15.8412 4.88332 15.8627 4.82908 15.8627C2.72448 15.8627 1.01149 14.1499 1.01116 12.0454C1.01227 11.1988 1.29413 10.3765 1.81259 9.70717C2.33118 9.03773 3.05718 8.55922 3.87687 8.34663Z" stroke="#D1D1D1" stroke-width="2"/>
</svg>
