<svg width="20" height="20" viewBox="0 0 20 20" fill="none" xmlns="http://www.w3.org/2000/svg">
<path d="M11.0644 1.48512L10 4.60795L8.93564 1.48512C8.87825 1.31599 8.86199 1.13561 8.88822 0.958942C8.91444 0.782273 8.98239 0.614396 9.08643 0.469224C9.19047 0.324052 9.32761 0.205765 9.48649 0.124164C9.64536 0.0425639 9.8214 0 10 0C10.1786 0 10.3546 0.0425639 10.5135 0.124164C10.6724 0.205765 10.8095 0.324052 10.9136 0.469224C11.0176 0.614396 11.0856 0.782273 11.1118 0.958942C11.138 1.13561 11.1217 1.31599 11.0644 1.48512ZM1.48512 8.93564L4.60795 10L1.48512 11.0644C1.31599 11.1217 1.13561 11.138 0.958942 11.1118C0.782273 11.0856 0.614396 11.0176 0.469224 10.9136C0.324052 10.8095 0.205765 10.6724 0.124164 10.5135C0.0425639 10.3546 0 10.1786 0 10C0 9.8214 0.0425639 9.64536 0.124164 9.48649C0.205765 9.32761 0.324052 9.19047 0.469224 9.08643C0.614396 8.98239 0.782273 8.91444 0.958942 8.88822C1.13561 8.86199 1.31599 8.87825 1.48512 8.93564ZM8.93564 18.5149L10 15.392L11.0644 18.5149C11.1217 18.684 11.138 18.8644 11.1118 19.0411C11.0856 19.2177 11.0176 19.3856 10.9136 19.5308C10.8095 19.6759 10.6724 19.7942 10.5135 19.8758C10.3546 19.9574 10.1786 20 10 20C9.8214 20 9.64536 19.9574 9.48649 19.8758C9.32761 19.7942 9.19047 19.6759 9.08643 19.5308C8.98239 19.3856 8.91444 19.2177 8.88822 19.0411C8.86199 18.8644 8.87825 18.684 8.93564 18.5149ZM18.5149 11.0622L15.392 9.99787L18.5149 8.93351C18.684 8.87612 18.8644 8.85986 19.0411 8.88609C19.2177 8.91231 19.3856 8.98026 19.5308 9.0843C19.6759 9.18834 19.7942 9.32548 19.8758 9.48436C19.9574 9.64323 20 9.81927 20 9.99787C20 10.1765 19.9574 10.3525 19.8758 10.5114C19.7942 10.6703 19.6759 10.8074 19.5308 10.9114C19.3856 11.0155 19.2177 11.0834 19.0411 11.1097C18.8644 11.1359 18.684 11.1196 18.5149 11.0622ZM4.73142 3.22641L6.1864 6.1864L3.22641 4.73142C3.06556 4.65271 2.92581 4.53674 2.8188 4.39315C2.71179 4.24956 2.6406 4.0825 2.61116 3.90585C2.58171 3.72921 2.59486 3.54809 2.64951 3.37755C2.70416 3.20702 2.79873 3.05199 2.92536 2.92536C3.05199 2.79873 3.20702 2.70416 3.37755 2.64951C3.54809 2.59486 3.72921 2.58171 3.90585 2.61116C4.0825 2.6406 4.24956 2.71179 4.39315 2.8188C4.53674 2.92581 4.65271 3.06556 4.73142 3.22641ZM3.22641 15.2675L6.1864 13.8125L4.73142 16.7725C4.65271 16.9334 4.53674 17.0731 4.39315 17.1801C4.24956 17.2871 4.0825 17.3583 3.90585 17.3878C3.72921 17.4172 3.54809 17.4041 3.37755 17.3494C3.20702 17.2948 3.05199 17.2002 2.92536 17.0736C2.79873 16.9469 2.70416 16.7919 2.64951 16.6214C2.59486 16.4508 2.58171 16.2697 2.61116 16.0931C2.6406 15.9164 2.71179 15.7494 2.8188 15.6058C2.92581 15.4622 3.06556 15.3462 3.22641 15.2675ZM15.2675 16.7725L13.8125 13.8125L16.7725 15.2675C16.9334 15.3462 17.0731 15.4622 17.1801 15.6058C17.2871 15.7494 17.3583 15.9164 17.3878 16.0931C17.4172 16.2697 17.4041 16.4508 17.3494 16.6214C17.2948 16.7919 17.2002 16.9469 17.0736 17.0736C16.9469 17.2002 16.7919 17.2948 16.6214 17.3494C16.4508 17.4041 16.2697 17.4172 16.0931 17.3878C15.9164 17.3583 15.7494 17.2871 15.6058 17.1801C15.4622 17.0731 15.3462 16.9334 15.2675 16.7725ZM16.7715 4.72929L13.8104 6.18533L15.2665 3.22428C15.3452 3.06343 15.4611 2.92368 15.6047 2.81667C15.7483 2.70966 15.9154 2.63847 16.092 2.60903C16.2687 2.57959 16.4498 2.59273 16.6203 2.64738C16.7909 2.70203 16.9459 2.7966 17.0725 2.92323C17.1991 3.04986 17.2937 3.20489 17.3484 3.37543C17.403 3.54596 17.4162 3.72708 17.3867 3.90373C17.3573 4.08037 17.2861 4.24743 17.1791 4.39102C17.0721 4.53461 16.9323 4.65058 16.7715 4.72929ZM10 14.7896C7.35932 14.7896 5.21038 12.6407 5.21038 10C5.21038 7.35932 7.35932 5.21038 10 5.21038C12.6407 5.21038 14.7896 7.35932 14.7896 10C14.7896 12.6407 12.6407 14.7896 10 14.7896ZM10 7.3391C8.53225 7.3391 7.3391 8.53225 7.3391 10C7.3391 11.4678 8.53225 12.6609 10 12.6609C11.4678 12.6609 12.6609 11.4678 12.6609 10C12.6609 8.53225 11.4678 7.3391 10 7.3391Z" fill="#D1D1D1"/>
</svg>
