<svg width="25" height="21" viewBox="0 0 25 21" fill="none" xmlns="http://www.w3.org/2000/svg">
<path d="M8.0896 15.1587L9.4187 20.119" stroke="#D1D1D1" stroke-width="1.5" stroke-linecap="round"/>
<path d="M12.548 15.0419L13.9202 20.1629" stroke="#D1D1D1" stroke-width="1.5" stroke-linecap="round"/>
<path d="M16.6873 15L18.0896 20.2336" stroke="#D1D1D1" stroke-width="1.5" stroke-linecap="round"/>
<path d="M10.0896 14.12L11.4488 19.1924" stroke="#D1D1D1" stroke-width="0.75" stroke-linecap="round"/>
<path d="M14.2525 14L15.6557 19.2368" stroke="#D1D1D1" stroke-width="0.75" stroke-linecap="round"/>
<path d="M4.14567 8.34663L4.90077 8.15078L4.89458 7.37072L4.89341 7.22306C4.89548 3.79147 7.68822 1.00001 11.1203 1.00001L11.1218 1.00001C12.4102 0.998027 13.6671 1.39808 14.7174 2.14439C15.7676 2.89071 16.5588 3.9461 16.9807 5.16347L17.2349 5.89684L18.0084 5.83256C20.9353 5.58932 23.3693 7.93894 23.3696 10.8398C23.3675 11.938 23.0066 13.0054 22.3417 13.8794C21.6766 14.7537 20.7438 15.3866 19.6855 15.6814L19.6721 15.6851L19.6588 15.6893C19.6327 15.6973 19.6052 15.7001 19.5779 15.6973C19.5507 15.6946 19.5243 15.6864 19.5003 15.6732C19.4763 15.6601 19.4552 15.6423 19.4382 15.6208L18.6541 16.2415L19.4382 15.6208C19.4212 15.5993 19.4087 15.5747 19.4014 15.5483C19.3941 15.5219 19.3922 15.4943 19.3958 15.4672C19.3993 15.44 19.4083 15.4139 19.4222 15.3903L18.56 14.8838L19.4222 15.3903C19.4361 15.3667 19.4545 15.3461 19.4765 15.3298L18.8798 14.5274L19.4765 15.3298C19.4984 15.3135 19.5235 15.3017 19.5501 15.2952L19.5663 15.2913L19.5824 15.2867C20.553 15.0154 21.4084 14.4342 22.0182 13.6318C22.628 12.8295 22.959 11.8498 22.9606 10.842V10.8403C22.9606 8.29583 20.8917 6.22689 18.3472 6.22689C17.9382 6.22689 17.5337 6.29699 17.0963 6.42175C17.0962 6.42177 17.0961 6.4218 17.096 6.42183L16.8778 6.48399L16.8406 6.26239C16.8405 6.26183 16.8405 6.26127 16.8404 6.26071C16.617 4.9053 15.9193 3.67333 14.8718 2.78465C13.8238 1.89559 12.4939 1.40801 11.1196 1.40897L11.1192 1.40897C10.2559 1.40993 9.40362 1.60283 8.62406 1.97372C7.8445 2.34461 7.15717 2.8842 6.61183 3.55343C6.06648 4.22265 5.67676 5.00477 5.4709 5.84315C5.26503 6.68153 5.24816 7.5552 5.4215 8.40091L5.42176 8.40217L5.46959 8.63399L4.99833 8.62869L4.98973 8.62859L4.98114 8.62864C3.18695 8.63929 1.68893 10.1932 1.68893 12.0448C1.68893 13.9256 3.21706 15.4538 5.09789 15.4538C5.15212 15.4538 5.20413 15.4753 5.24248 15.5137C5.28082 15.552 5.30237 15.604 5.30237 15.6582C5.30237 15.7125 5.28083 15.7645 5.24248 15.8028L5.82102 16.3814L5.24248 15.8028C5.20413 15.8412 5.15212 15.8627 5.09789 15.8627C2.99329 15.8627 1.28029 14.1499 1.27997 12.0454C1.28108 11.1988 1.56293 10.3765 2.0814 9.70717C2.59998 9.03773 3.32599 8.55922 4.14567 8.34663Z" stroke="#D1D1D1" stroke-width="2"/>
<path d="M8 8.26421L12.7368 4L11.1579 7.68421L14.3158 9.21052L9.57895 13.4737L11.1579 9.78947L8 8.26421Z" fill="#D1D1D1"/>
</svg>
