<svg width="21" height="20" viewBox="0 0 21 20" fill="none" xmlns="http://www.w3.org/2000/svg">
<path d="M9.15338 11H11.1534V13H9.15338V11ZM9.15338 3H11.1534V9H9.15338V3ZM15.1534 2.76C17.0134 4.19 18.1534 6.61 18.1534 9C18.1521 10.4303 17.7674 11.8342 17.0392 13.0653C16.3111 14.2965 15.2662 15.3099 14.0134 16H6.29338C5.04055 15.3099 3.99566 14.2965 3.26753 13.0653C2.5394 11.8342 2.15466 10.4303 2.15338 9C2.15338 6.61 3.24338 4.17 5.15338 2.76V0H3.15338V1.86C1.30338 3.68 0.153381 6.2 0.153381 9C0.153381 11.8 1.30338 14.32 3.15338 16.14V20H5.15338V18H7.15338V20H9.15338V18H11.1534V20H13.1534V18H15.1534V20H17.1534V16.14C19.0034 14.32 20.1534 11.8 20.1534 9C20.1534 6.2 19.0034 3.68 17.1534 1.86V0H15.1534V2.76Z" fill="#D1D1D1"/>
</svg>
