<svg width="36" height="32" viewBox="0 0 36 32" fill="none" xmlns="http://www.w3.org/2000/svg">
<g id="Frame 3">
<path id="Arrow 1" d="M34 17.5C34.8284 17.5 35.5 16.8284 35.5 16C35.5 15.1716 34.8284 14.5 34 14.5V17.5ZM0.93934 14.9393C0.353553 15.5251 0.353553 16.4749 0.93934 17.0607L10.4853 26.6066C11.0711 27.1924 12.0208 27.1924 12.6066 26.6066C13.1924 26.0208 13.1924 25.0711 12.6066 24.4853L4.12132 16L12.6066 7.51472C13.1924 6.92893 13.1924 5.97919 12.6066 5.3934C12.0208 4.80761 11.0711 4.80761 10.4853 5.3934L0.93934 14.9393ZM34 14.5H2V17.5H34V14.5Z" fill="#D1D1D1"/>
</g>
</svg>
