<svg width="25" height="21" viewBox="0 0 25 21" fill="none" xmlns="http://www.w3.org/2000/svg">
<path d="M8 14.9708L9.81173 19.8471" stroke="#D1D1D1" stroke-linecap="round"/>
<path d="M12.1162 14.8544L13.9867 19.8887" stroke="#D1D1D1" stroke-linecap="round"/>
<path d="M15.8855 14.8396L17.9059 19.9331" stroke="#D1D1D1" stroke-linecap="round"/>
<path d="M3.96647 8.64717L4.72157 8.45132L4.71537 7.67126L4.7142 7.52361C4.71628 4.09202 7.50902 1.30055 10.9411 1.30055L10.9426 1.30055C12.231 1.29857 13.4879 1.69862 14.5382 2.44494C15.5884 3.19125 16.3796 4.24665 16.8015 5.46401L17.0557 6.19739L17.8292 6.13311C20.7561 5.88987 23.1901 8.23948 23.1904 11.1404C23.1883 12.2385 22.8274 13.3059 22.1625 14.18C21.4974 15.0543 20.5646 15.6871 19.5063 15.982L19.4929 15.9857L19.4796 15.9898C19.4535 15.9979 19.426 16.0006 19.3987 15.9979C19.3715 15.9951 19.3451 15.9869 19.3211 15.9738C19.2971 15.9606 19.276 15.9428 19.259 15.9213L18.4749 16.542L19.259 15.9213C19.242 15.8999 19.2295 15.8752 19.2222 15.8488C19.2149 15.8225 19.213 15.7949 19.2166 15.7677C19.2201 15.7406 19.2291 15.7145 19.243 15.6909L18.3807 15.1843L19.243 15.6909C19.2568 15.6673 19.2753 15.6467 19.2973 15.6303L18.7005 14.8279L19.2973 15.6303C19.3192 15.614 19.3443 15.6023 19.3709 15.5958L19.3871 15.5918L19.4032 15.5873C20.3738 15.3159 21.2292 14.7348 21.839 13.9324C22.4488 13.13 22.7798 12.1503 22.7814 11.1425V11.1409C22.7814 8.59638 20.7125 6.52743 18.168 6.52743C17.759 6.52743 17.3545 6.59754 16.9171 6.72229C16.917 6.72232 16.9169 6.72235 16.9168 6.72238L16.6986 6.78454L16.6614 6.56294C16.6613 6.56238 16.6612 6.56182 16.6612 6.56126C16.4378 5.20585 15.7401 3.97388 14.6925 3.08519C13.6446 2.19614 12.3147 1.70855 10.9404 1.70951L10.94 1.70951C10.0767 1.71047 9.22441 1.90338 8.44485 2.27427C7.6653 2.64516 6.97797 3.18475 6.43262 3.85397C5.88727 4.5232 5.49756 5.30532 5.29169 6.1437C5.08582 6.98208 5.06895 7.85575 5.2423 8.70145L5.24256 8.70272L5.29039 8.93453L4.81912 8.92923L4.81053 8.92913L4.80193 8.92918C3.00774 8.93983 1.50972 10.4937 1.50972 12.3454C1.50972 14.2262 3.03786 15.7543 4.91868 15.7543C4.97292 15.7543 5.02492 15.7759 5.06327 15.8142C5.10162 15.8526 5.12316 15.9046 5.12316 15.9588C5.12316 16.013 5.10162 16.065 5.06327 16.1034L5.64181 16.6819L5.06327 16.1034C5.02493 16.1417 4.97292 16.1633 4.91868 16.1633C2.81408 16.1633 1.10109 14.4505 1.10076 12.346C1.10187 11.4993 1.38373 10.677 1.90219 10.0077C2.42078 9.33827 3.14678 8.85977 3.96647 8.64717Z" stroke="#D1D1D1" stroke-width="2"/>
</svg>
