<svg width="21" height="20" viewBox="0 0 21 20" fill="none" xmlns="http://www.w3.org/2000/svg">
<path d="M15.3756 18.3333H3.15338C2.85869 18.3333 2.57608 18.2163 2.3677 18.0079C2.15933 17.7995 2.04227 17.5169 2.04227 17.2222V5C2.04227 4.70531 2.15933 4.4227 2.3677 4.21432C2.57608 4.00595 2.85869 3.88889 3.15338 3.88889H8.70893V5H3.15338V17.2222H15.3756V11.6667H16.4867V17.2222C16.4867 17.5169 16.3696 17.7995 16.1613 18.0079C15.9529 18.2163 15.6703 18.3333 15.3756 18.3333Z" fill="#D9D9D9" stroke="#D1D1D1" stroke-width="0.8"/>
<path d="M10.3756 1.66666C10.2283 1.66666 10.087 1.7252 9.98278 1.82938C9.87859 1.93357 9.82006 2.07488 9.82006 2.22222C9.82006 2.36956 9.87859 2.51087 9.98278 2.61506C10.087 2.71924 10.2283 2.77778 10.3756 2.77778H16.8145L9.12006 10.4722C9.06191 10.522 9.01467 10.5833 8.98133 10.6522C8.94798 10.7212 8.92924 10.7962 8.92629 10.8727C8.92333 10.9493 8.93622 11.0256 8.96415 11.0968C8.99208 11.1681 9.03445 11.2329 9.08859 11.287C9.14273 11.3412 9.20748 11.3835 9.27877 11.4115C9.35006 11.4394 9.42636 11.4523 9.50287 11.4493C9.57938 11.4464 9.65446 11.4276 9.72338 11.3943C9.7923 11.3609 9.85359 11.3137 9.9034 11.2556L17.5978 3.56111V10C17.5978 10.1473 17.6564 10.2886 17.7606 10.3928C17.8647 10.497 18.0061 10.5556 18.1534 10.5556C18.3007 10.5556 18.442 10.497 18.5462 10.3928C18.6504 10.2886 18.709 10.1473 18.709 10V1.66666H10.3756Z" fill="#D9D9D9" stroke="#D1D1D1" stroke-width="0.8"/>
</svg>
